<svg width="146" height="122" viewBox="0 0 146 122" fill="none" xmlns="http://www.w3.org/2000/svg">
<path d="M111.31 60.2425V49.3146C111.31 49.3146 114.5 49.1509 117.118 48.7394C119.373 48.3848 121.473 46.5293 121.473 45.8637C121.473 44.4258 121.473 40.3997 121.473 40.3997C121.473 40.3997 80.4582 8.47866 77.5545 6.17799C74.6508 3.87732 71.0212 2.72708 66.3026 6.17801C61.5841 9.62893 55.4137 15.0929 55.4137 15.0929C55.4137 15.0929 54.3248 11.9296 50.3322 10.7793C46.7026 9.34141 42.1438 10.2961 39.8062 11.3544C34.7247 13.6551 37.2655 22.7522 37.2655 29.7594C37.2655 30.3345 30.3692 34.9357 30.0062 35.2233C30.0062 35.2233 23.4728 39.2494 23.4728 41.55C23.4728 43.8506 23.4728 44.9552 25.2877 46.7264C27.9396 49.3146 33.6358 48.7394 33.6358 48.7394V60.2425" stroke="#CB3939" stroke-width="7"/>
<path d="M37.9913 60.2424H30.0061V91.8759H37.9913V60.2424Z" fill="#CB3939" stroke="#CB3939"/>
<path d="M107.68 60.2424H115.666V91.8759H107.68V60.2424Z" fill="#CB3939" stroke="#CB3939"/>
<mask id="mask0" mask-type="alpha" maskUnits="userSpaceOnUse" x="7" y="60" width="40" height="34">
<ellipse rx="17.5177" ry="18.5664" transform="matrix(0.605812 -0.795237 0.870324 0.493013 26.817 76.6716)" fill="#DE3D73"/>
</mask>
<g mask="url(#mask0)">
<rect width="19.3321" height="48.7719" transform="matrix(-0.999999 0.00103216 -0.00164425 -0.999999 26.8505 97.0446)" fill="#CB3939"/>
</g>
<mask id="mask1" mask-type="alpha" maskUnits="userSpaceOnUse" x="99" y="60" width="40" height="34">
<ellipse rx="17.518" ry="18.5662" transform="matrix(-0.594393 0.800608 -0.877326 -0.485176 118.855 76.6966)" fill="#DE3D73"/>
</mask>
<g mask="url(#mask1)">
<rect width="19.3315" height="48.7742" transform="matrix(0.99995 -0.0100066 0.0159394 0.999873 118.53 56.3252)" fill="#CB3939"/>
</g>
<path d="M86.8275 58.1231C77.0443 60.7201 67.4289 60.9037 58.0166 58.1631C56.9102 57.8409 56.1538 56.8859 56.1538 55.802V28.7724C56.1538 27.563 57.0899 26.5313 58.3656 26.3346C67.2446 24.9657 76.6507 25.0718 86.4885 26.3857C87.7884 26.5593 88.7534 27.6029 88.7534 28.8312V55.7448C88.7534 56.8515 87.9656 57.8209 86.8275 58.1231Z" fill="#CB3939"/>
<path d="M66.6517 39.6268C66.6517 39.6268 64.4016 36.3937 65.7863 35.5429C67.171 34.6921 69.2481 37.0744 69.2481 37.0744C69.2481 37.0744 71.8445 34.8623 73.2292 35.7131C74.6139 36.5639 71.8445 39.6268 71.8445 39.6268C71.8445 39.6268 73.9215 40.1372 74.0946 41.4985C74.2677 42.8598 74.9601 46.4332 72.0175 46.6034C70.4412 46.6945 69.5603 46.2485 69.0821 45.8147C68.9081 45.6613 68.6833 45.5753 68.4496 45.5726C68.2159 45.5698 67.9892 45.6506 67.8115 45.7999C66.8137 46.6263 65.0166 47.5789 63.7092 45.2421C63.1899 41.6687 66.6517 39.6268 66.6517 39.6268Z" fill="#3F3D56"/>
<path d="M83.2685 39.9671C83.2685 39.9671 85.5187 36.734 84.134 35.8832C82.7492 35.0324 80.6722 37.4147 80.6722 37.4147C80.6722 37.4147 78.0758 35.2026 76.6911 36.0534C75.3063 36.9042 78.0758 39.9671 78.0758 39.9671C78.0758 39.9671 75.9987 40.4776 75.8256 41.8388C75.6525 43.2001 74.9602 46.7735 77.9027 46.9437C79.4791 47.0348 80.36 46.5888 80.8382 46.155C81.0122 46.0016 81.2369 45.9156 81.4706 45.9129C81.7043 45.9102 81.9311 45.9909 82.1088 46.1402C83.1066 46.9666 84.9037 47.9192 86.2111 45.5824C86.7303 42.009 83.2685 39.9671 83.2685 39.9671Z" fill="#3F3D56"/>
<path d="M63.9199 48.8032C63.9199 48.8032 67.1669 51.3731 74.0907 51.2111C81.0145 51.0491 83.2535 50.7712 84.7335 49.1669C86.2135 47.5626 86.6521 49.4155 86.1925 50.6301C85.733 51.8447 85.1428 53.9174 81.6935 54.2534C79.4228 54.4745 74.5148 54.527 71.4262 54.537C69.0255 54.5565 66.6518 54.0374 64.4859 53.0191C64.4573 53.0055 64.4287 52.9918 64.4003 52.978C63.7433 52.659 63.1901 52.1657 62.8032 51.5539C62.4164 50.9421 62.2112 50.2362 62.211 49.5158C62.2113 48.9434 62.3138 48.6341 62.6928 48.5214C63.3759 48.3182 63.9199 48.8032 63.9199 48.8032Z" fill="#3F3D56"/>
<path d="M62.0934 68.0532H68.9334C70.7094 68.0532 72.2774 68.4132 73.6374 69.1332C74.9974 69.8372 76.0534 70.8292 76.8054 72.1092C77.5574 73.3732 77.9334 74.8212 77.9334 76.4532C77.9334 78.0852 77.5574 79.5412 76.8054 80.8212C76.0534 82.0852 74.9974 83.0772 73.6374 83.7972C72.2774 84.5012 70.7094 84.8532 68.9334 84.8532H62.0934V68.0532ZM68.8374 83.3172C70.3094 83.3172 71.5974 83.0292 72.7014 82.4532C73.8054 81.8612 74.6614 81.0532 75.2694 80.0292C75.8774 78.9892 76.1814 77.7972 76.1814 76.4532C76.1814 75.1092 75.8774 73.9252 75.2694 72.9012C74.6614 71.8612 73.8054 71.0532 72.7014 70.4772C71.5974 69.8852 70.3094 69.5892 68.8374 69.5892H63.8694V83.3172H68.8374ZM81.6114 89.6292C81.0834 89.6292 80.5874 89.5572 80.1234 89.4132C79.6434 89.2852 79.2514 89.0852 78.9474 88.8132L79.5474 87.5172C80.0434 87.9492 80.6994 88.1652 81.5154 88.1652C82.1874 88.1652 82.6994 87.9652 83.0514 87.5652C83.4194 87.1652 83.6034 86.5732 83.6034 85.7892V72.2292H85.3074V85.7892C85.3074 86.9732 84.9874 87.9092 84.3474 88.5972C83.7074 89.2852 82.7954 89.6292 81.6114 89.6292ZM84.4674 69.4452C84.1154 69.4452 83.8194 69.3252 83.5794 69.0852C83.3394 68.8452 83.2194 68.5572 83.2194 68.2212C83.2194 67.9012 83.3394 67.6212 83.5794 67.3812C83.8194 67.1412 84.1154 67.0212 84.4674 67.0212C84.8194 67.0212 85.1154 67.1412 85.3554 67.3812C85.5954 67.6052 85.7154 67.8772 85.7154 68.1972C85.7154 68.5492 85.5954 68.8452 85.3554 69.0852C85.1154 69.3252 84.8194 69.4452 84.4674 69.4452Z" fill="#CB3939"/>
<path d="M62.0934 68.0532V66.0532H60.0934V68.0532H62.0934ZM73.6374 69.1332L72.7016 70.9008L72.7097 70.9051L72.7179 70.9094L73.6374 69.1332ZM76.8054 72.1092L75.0809 73.1224L75.0865 73.1318L76.8054 72.1092ZM76.8054 80.8212L78.5242 81.8438L78.5298 81.8343L76.8054 80.8212ZM73.6374 83.7972L74.5568 85.5734L74.565 85.5691L74.5731 85.5648L73.6374 83.7972ZM62.0934 84.8532H60.0934V86.8532H62.0934V84.8532ZM72.7014 82.4532L73.6265 84.2264L73.6365 84.2212L73.6465 84.2158L72.7014 82.4532ZM75.2694 80.0292L76.9891 81.0503L76.996 81.0386L75.2694 80.0292ZM75.2694 72.9012L73.5427 73.9107L73.5497 73.9223L75.2694 72.9012ZM72.7014 70.4772L71.7562 72.2398L71.7662 72.2452L71.7762 72.2504L72.7014 70.4772ZM63.8694 69.5892V67.5892H61.8694V69.5892H63.8694ZM63.8694 83.3172H61.8694V85.3172H63.8694V83.3172ZM62.0934 70.0532H68.9334V66.0532H62.0934V70.0532ZM68.9334 70.0532C70.4337 70.0532 71.6715 70.3555 72.7016 70.9008L74.5731 67.3657C72.8832 66.471 70.985 66.0532 68.9334 66.0532V70.0532ZM72.7179 70.9094C73.7542 71.4458 74.5262 72.1781 75.0809 73.1223L78.5298 71.0961C77.5805 69.4803 76.2405 68.2287 74.5568 67.3571L72.7179 70.9094ZM75.0865 73.1318C75.6348 74.0534 75.9334 75.1407 75.9334 76.4532H79.9334C79.9334 74.5018 79.4799 72.6931 78.5242 71.0867L75.0865 73.1318ZM75.9334 76.4532C75.9334 77.7654 75.6349 78.8652 75.0809 79.8081L78.5298 81.8343C79.4798 80.2173 79.9334 78.4051 79.9334 76.4532H75.9334ZM75.0865 79.7987C74.5311 80.7322 73.7529 81.4731 72.7016 82.0297L74.5731 85.5648C76.2419 84.6814 77.5756 83.4382 78.5242 81.8438L75.0865 79.7987ZM72.7179 82.0211C71.6844 82.5561 70.4406 82.8532 68.9334 82.8532V86.8532C70.9781 86.8532 72.8704 86.4463 74.5568 85.5734L72.7179 82.0211ZM68.9334 82.8532H62.0934V86.8532H68.9334V82.8532ZM64.0934 84.8532V68.0532H60.0934V84.8532H64.0934ZM68.8374 85.3172C70.573 85.3172 72.1892 84.9763 73.6265 84.2264L71.7762 80.6801C71.0056 81.0822 70.0457 81.3172 68.8374 81.3172V85.3172ZM73.6465 84.2158C75.054 83.4611 76.1854 82.4039 76.9891 81.0503L73.5497 79.0082C73.1374 79.7026 72.5567 80.2614 71.7562 80.6907L73.6465 84.2158ZM76.996 81.0386C77.8031 79.658 78.1814 78.11 78.1814 76.4532H74.1814C74.1814 77.4845 73.9516 78.3205 73.5428 79.0198L76.996 81.0386ZM78.1814 76.4532C78.1814 74.7971 77.8032 73.2514 76.9891 71.8802L73.5497 73.9223C73.9515 74.5991 74.1814 75.4214 74.1814 76.4532H78.1814ZM76.996 71.8918C76.1914 70.5156 75.0524 69.448 73.6265 68.7041L71.7762 72.2504C72.5584 72.6585 73.1314 73.2069 73.5428 73.9106L76.996 71.8918ZM73.6465 68.7147C72.2048 67.9416 70.5814 67.5892 68.8374 67.5892V71.5892C70.0374 71.5892 70.9899 71.8289 71.7562 72.2398L73.6465 68.7147ZM68.8374 67.5892H63.8694V71.5892H68.8374V67.5892ZM61.8694 69.5892V83.3172H65.8694V69.5892H61.8694ZM63.8694 85.3172H68.8374V81.3172H63.8694V85.3172ZM80.1234 89.4132L80.7162 87.5031L80.6776 87.4912L80.6387 87.4808L80.1234 89.4132ZM78.9474 88.8132L77.1324 87.973L76.5104 89.3165L77.6138 90.3037L78.9474 88.8132ZM79.5474 87.5172L80.8609 86.0091L78.8518 84.2592L77.7324 86.677L79.5474 87.5172ZM83.0514 87.5652L81.5795 86.2111L81.5645 86.2274L81.5499 86.244L83.0514 87.5652ZM83.6034 72.2292V70.2292H81.6034V72.2292H83.6034ZM85.3074 72.2292H87.3074V70.2292H85.3074V72.2292ZM84.3474 88.5972L82.883 87.235L84.3474 88.5972ZM83.5794 69.0852L82.1651 70.4995L82.1651 70.4995L83.5794 69.0852ZM85.3554 67.3812L83.9411 68.7955L83.9655 68.8198L83.9907 68.8434L85.3554 67.3812ZM85.3554 69.0852L86.7696 70.4995L86.7696 70.4995L85.3554 69.0852ZM81.6114 87.6292C81.267 87.6292 80.9723 87.5826 80.7162 87.5031L79.5306 91.3234C80.2024 91.5319 80.8997 91.6292 81.6114 91.6292V87.6292ZM80.6387 87.4808C80.3971 87.4164 80.3051 87.3444 80.281 87.3228L77.6138 90.3037C78.1976 90.8261 78.8896 91.1541 79.608 91.3457L80.6387 87.4808ZM80.7623 89.6535L81.3623 88.3575L77.7324 86.677L77.1324 87.973L80.7623 89.6535ZM78.2338 89.0254C79.1756 89.8456 80.337 90.1652 81.5154 90.1652V86.1652C81.0617 86.1652 80.9112 86.0528 80.8609 86.0091L78.2338 89.0254ZM81.5154 90.1652C82.6007 90.1652 83.7261 89.8259 84.5528 88.8865L81.5499 86.244C81.5673 86.2242 81.5901 86.2034 81.6166 86.185C81.6428 86.1668 81.6644 86.1567 81.6757 86.1523C81.6969 86.144 81.6561 86.1652 81.5154 86.1652V90.1652ZM84.5232 88.9194C85.3551 88.0152 85.6034 86.8549 85.6034 85.7892H81.6034C81.6034 86.0306 81.5744 86.1669 81.5555 86.2276C81.539 86.2806 81.5366 86.2578 81.5795 86.2111L84.5232 88.9194ZM85.6034 85.7892V72.2292H81.6034V85.7892H85.6034ZM83.6034 74.2292H85.3074V70.2292H83.6034V74.2292ZM83.3074 72.2292V85.7892H87.3074V72.2292H83.3074ZM83.3074 85.7892C83.3074 86.6048 83.0956 87.0065 82.883 87.235L85.8117 89.9594C86.8791 88.812 87.3074 87.3417 87.3074 85.7892H83.3074ZM82.883 87.235C82.7148 87.4158 82.3938 87.6292 81.6114 87.6292V91.6292C83.1969 91.6292 84.6999 91.1547 85.8117 89.9594L82.883 87.235ZM84.4674 67.4452C84.5226 67.4452 84.6188 67.4556 84.7328 67.5018C84.8482 67.5485 84.9363 67.6138 84.9936 67.671L82.1651 70.4995C82.7955 71.1298 83.6069 71.4452 84.4674 71.4452V67.4452ZM84.9936 67.671C85.042 67.7194 85.1065 67.8024 85.1555 67.92C85.2047 68.038 85.2194 68.1457 85.2194 68.2212H81.2194C81.2194 69.0937 81.5544 69.8887 82.1651 70.4995L84.9936 67.671ZM85.2194 68.2212C85.2194 68.3182 85.1997 68.4376 85.1477 68.5591C85.0966 68.6782 85.033 68.756 84.9936 68.7955L82.1651 65.967C81.5753 66.5568 81.2194 67.3361 81.2194 68.2212H85.2194ZM84.9936 68.7955C84.9363 68.8527 84.8482 68.9179 84.7328 68.9647C84.6188 69.0109 84.5226 69.0212 84.4674 69.0212V65.0212C83.6069 65.0212 82.7955 65.3367 82.1651 65.967L84.9936 68.7955ZM84.4674 69.0212C84.4121 69.0212 84.3159 69.0109 84.202 68.9647C84.0865 68.9179 83.9984 68.8527 83.9411 68.7955L86.7696 65.967C86.1392 65.3367 85.3278 65.0212 84.4674 65.0212V69.0212ZM83.9907 68.8434C83.9337 68.7901 83.8556 68.6967 83.7955 68.5605C83.7349 68.4232 83.7154 68.2937 83.7154 68.1972H87.7154C87.7154 67.3068 87.3534 66.5103 86.72 65.9191L83.9907 68.8434ZM83.7154 68.1972C83.7154 68.142 83.7257 68.0458 83.7719 67.9318C83.8187 67.8164 83.8839 67.7283 83.9411 67.671L86.7696 70.4995C87.3999 69.8691 87.7154 69.0577 87.7154 68.1972H83.7154ZM83.9411 67.671C83.9984 67.6138 84.0865 67.5485 84.202 67.5018C84.3159 67.4556 84.4121 67.4452 84.4674 67.4452V71.4452C85.3278 71.4452 86.1392 71.1298 86.7696 70.4995L83.9411 67.671Z" fill="#3F3D56"/>
<path d="M57.7569 107.65V108.802H48.8469V96.202H57.4869V97.354H50.1789V101.836H56.6949V102.97H50.1789V107.65H57.7569ZM68.3805 99.334L64.1685 108.802H62.8545L58.6605 99.334H59.9925L63.5385 107.398L67.1205 99.334H68.3805ZM78.1607 104.464H70.2407C70.3127 105.448 70.6907 106.246 71.3747 106.858C72.0587 107.458 72.9227 107.758 73.9667 107.758C74.5547 107.758 75.0947 107.656 75.5867 107.452C76.0787 107.236 76.5047 106.924 76.8647 106.516L77.5847 107.344C77.1647 107.848 76.6367 108.232 76.0007 108.496C75.3767 108.76 74.6867 108.892 73.9307 108.892C72.9587 108.892 72.0947 108.688 71.3387 108.28C70.5947 107.86 70.0127 107.284 69.5927 106.552C69.1727 105.82 68.9627 104.992 68.9627 104.068C68.9627 103.144 69.1607 102.316 69.5567 101.584C69.9647 100.852 70.5167 100.282 71.2127 99.874C71.9207 99.466 72.7127 99.262 73.5887 99.262C74.4647 99.262 75.2507 99.466 75.9467 99.874C76.6427 100.282 77.1887 100.852 77.5847 101.584C77.9807 102.304 78.1787 103.132 78.1787 104.068L78.1607 104.464ZM73.5887 100.36C72.6767 100.36 71.9087 100.654 71.2847 101.242C70.6727 101.818 70.3247 102.574 70.2407 103.51H76.9547C76.8707 102.574 76.5167 101.818 75.8927 101.242C75.2807 100.654 74.5127 100.36 73.5887 100.36ZM85.604 99.262C86.792 99.262 87.734 99.61 88.43 100.306C89.138 100.99 89.492 101.992 89.492 103.312V108.802H88.214V103.438C88.214 102.454 87.968 101.704 87.476 101.188C86.984 100.672 86.282 100.414 85.37 100.414C84.35 100.414 83.54 100.72 82.94 101.332C82.352 101.932 82.058 102.766 82.058 103.834V108.802H80.78V99.334H82.004V101.08C82.352 100.504 82.832 100.06 83.444 99.748C84.068 99.424 84.788 99.262 85.604 99.262ZM97.9476 108.226C97.7076 108.442 97.4076 108.61 97.0476 108.73C96.6996 108.838 96.3336 108.892 95.9496 108.892C95.0616 108.892 94.3776 108.652 93.8976 108.172C93.4176 107.692 93.1776 107.014 93.1776 106.138V100.414H91.4856V99.334H93.1776V97.264H94.4556V99.334H97.3356V100.414H94.4556V106.066C94.4556 106.63 94.5936 107.062 94.8696 107.362C95.1576 107.65 95.5656 107.794 96.0936 107.794C96.3576 107.794 96.6096 107.752 96.8496 107.668C97.1016 107.584 97.3176 107.464 97.4976 107.308L97.9476 108.226ZM102.812 108.892C102.044 108.892 101.306 108.784 100.598 108.568C99.9021 108.34 99.3561 108.058 98.9601 107.722L99.5361 106.714C99.9321 107.026 100.43 107.284 101.03 107.488C101.63 107.68 102.254 107.776 102.902 107.776C103.766 107.776 104.402 107.644 104.81 107.38C105.23 107.104 105.44 106.72 105.44 106.228C105.44 105.88 105.326 105.61 105.098 105.418C104.87 105.214 104.582 105.064 104.234 104.968C103.886 104.86 103.424 104.758 102.848 104.662C102.08 104.518 101.462 104.374 100.994 104.23C100.526 104.074 100.124 103.816 99.7881 103.456C99.4641 103.096 99.3021 102.598 99.3021 101.962C99.3021 101.17 99.6321 100.522 100.292 100.018C100.952 99.514 101.87 99.262 103.046 99.262C103.658 99.262 104.27 99.346 104.882 99.514C105.494 99.67 105.998 99.88 106.394 100.144L105.836 101.17C105.056 100.63 104.126 100.36 103.046 100.36C102.23 100.36 101.612 100.504 101.192 100.792C100.784 101.08 100.58 101.458 100.58 101.926C100.58 102.286 100.694 102.574 100.922 102.79C101.162 103.006 101.456 103.168 101.804 103.276C102.152 103.372 102.632 103.474 103.244 103.582C104 103.726 104.606 103.87 105.062 104.014C105.518 104.158 105.908 104.404 106.232 104.752C106.556 105.1 106.718 105.58 106.718 106.192C106.718 107.02 106.37 107.68 105.674 108.172C104.99 108.652 104.036 108.892 102.812 108.892Z" fill="#CB3939"/>
<path d="M57.7569 107.65H59.7569V105.65H57.7569V107.65ZM57.7569 108.802V110.802H59.7569V108.802H57.7569ZM48.8469 108.802H46.8469V110.802H48.8469V108.802ZM48.8469 96.202V94.202H46.8469V96.202H48.8469ZM57.4869 96.202H59.4869V94.202H57.4869V96.202ZM57.4869 97.354V99.354H59.4869V97.354H57.4869ZM50.1789 97.354V95.354H48.1789V97.354H50.1789ZM50.1789 101.836H48.1789V103.836H50.1789V101.836ZM56.6949 101.836H58.6949V99.836H56.6949V101.836ZM56.6949 102.97V104.97H58.6949V102.97H56.6949ZM50.1789 102.97V100.97H48.1789V102.97H50.1789ZM50.1789 107.65H48.1789V109.65H50.1789V107.65ZM55.7569 107.65V108.802H59.7569V107.65H55.7569ZM57.7569 106.802H48.8469V110.802H57.7569V106.802ZM50.8469 108.802V96.202H46.8469V108.802H50.8469ZM48.8469 98.202H57.4869V94.202H48.8469V98.202ZM55.4869 96.202V97.354H59.4869V96.202H55.4869ZM57.4869 95.354H50.1789V99.354H57.4869V95.354ZM48.1789 97.354V101.836H52.1789V97.354H48.1789ZM50.1789 103.836H56.6949V99.836H50.1789V103.836ZM54.6949 101.836V102.97H58.6949V101.836H54.6949ZM56.6949 100.97H50.1789V104.97H56.6949V100.97ZM48.1789 102.97V107.65H52.1789V102.97H48.1789ZM50.1789 109.65H57.7569V105.65H50.1789V109.65ZM68.3805 99.334L70.2079 100.147L71.4592 97.334H68.3805V99.334ZM64.1685 108.802V110.802H65.4678L65.9959 109.615L64.1685 108.802ZM62.8545 108.802L61.0259 109.612L61.553 110.802H62.8545V108.802ZM58.6605 99.334V97.334H55.5871L56.8319 100.144L58.6605 99.334ZM59.9925 99.334L61.8233 98.5289L61.2979 97.334H59.9925V99.334ZM63.5385 107.398L61.7077 108.203L63.5293 112.345L65.3663 108.21L63.5385 107.398ZM67.1205 99.334V97.334H65.8205L65.2927 98.5221L67.1205 99.334ZM66.5532 98.521L62.3412 107.989L65.9959 109.615L70.2079 100.147L66.5532 98.521ZM64.1685 106.802H62.8545V110.802H64.1685V106.802ZM64.6831 107.992L60.4891 98.5239L56.8319 100.144L61.0259 109.612L64.6831 107.992ZM58.6605 101.334H59.9925V97.334H58.6605V101.334ZM58.1617 100.139L61.7077 108.203L65.3693 106.593L61.8233 98.5289L58.1617 100.139ZM65.3663 108.21L68.9483 100.146L65.2927 98.5221L61.7107 106.586L65.3663 108.21ZM67.1205 101.334H68.3805V97.334H67.1205V101.334ZM78.1607 104.464V106.464H80.0719L80.1586 104.555L78.1607 104.464ZM70.2407 104.464V102.464H68.089L68.246 104.61L70.2407 104.464ZM71.3747 106.858L70.0411 108.348L70.0484 108.355L70.0558 108.361L71.3747 106.858ZM75.5867 107.452L76.3527 109.299L76.3718 109.292L76.3907 109.283L75.5867 107.452ZM76.8647 106.516L78.3739 105.204L76.8757 103.481L75.365 105.193L76.8647 106.516ZM77.5847 107.344L79.1211 108.624L80.2111 107.316L79.0939 106.032L77.5847 107.344ZM76.0007 108.496L75.2339 106.649L75.2214 106.654L76.0007 108.496ZM71.3387 108.28L70.3555 110.022L70.3721 110.031L70.3888 110.04L71.3387 108.28ZM69.5927 106.552L67.858 107.547V107.547L69.5927 106.552ZM69.5567 101.584L67.8097 100.61L67.8036 100.621L67.7976 100.632L69.5567 101.584ZM71.2127 99.874L70.2141 98.1411L70.2077 98.1448L70.2013 98.1486L71.2127 99.874ZM77.5847 101.584L75.8256 102.536L75.8323 102.548L77.5847 101.584ZM78.1787 104.068L80.1766 104.159L80.1787 104.113V104.068H78.1787ZM71.2847 101.242L72.6554 102.698L72.6563 102.698L71.2847 101.242ZM70.2407 103.51L68.2487 103.331L68.0532 105.51H70.2407V103.51ZM76.9547 103.51V105.51H79.1422L78.9467 103.331L76.9547 103.51ZM75.8927 101.242L74.5071 102.684L74.5215 102.698L74.5361 102.712L75.8927 101.242ZM78.1607 102.464H70.2407V106.464H78.1607V102.464ZM68.246 104.61C68.3527 106.068 68.9402 107.363 70.0411 108.348L72.7083 105.367C72.4413 105.129 72.2727 104.828 72.2354 104.318L68.246 104.61ZM70.0558 108.361C71.1581 109.328 72.5135 109.758 73.9667 109.758V105.758C73.3319 105.758 72.9593 105.588 72.6936 105.354L70.0558 108.361ZM73.9667 109.758C74.7902 109.758 75.5938 109.614 76.3527 109.299L74.8207 105.604C74.5956 105.698 74.3192 105.758 73.9667 105.758V109.758ZM76.3907 109.283C77.1522 108.949 77.8146 108.462 78.3644 107.839L75.365 105.193C75.1948 105.386 75.0052 105.523 74.7827 105.621L76.3907 109.283ZM75.3555 107.828L76.0755 108.656L79.0939 106.032L78.3739 105.204L75.3555 107.828ZM76.0483 106.064C75.8456 106.307 75.5866 106.502 75.2339 106.649L76.7675 110.343C77.6868 109.962 78.4838 109.389 79.1211 108.624L76.0483 106.064ZM75.2214 106.654C74.871 106.802 74.45 106.892 73.9307 106.892V110.892C74.9234 110.892 75.8824 110.718 76.78 110.338L75.2214 106.654ZM73.9307 106.892C73.2462 106.892 72.7162 106.751 72.2886 106.52L70.3888 110.04C71.4732 110.625 72.6713 110.892 73.9307 110.892V106.892ZM72.3219 106.538C71.8869 106.293 71.5662 105.973 71.3274 105.557L67.858 107.547C68.4592 108.595 69.3026 109.427 70.3555 110.022L72.3219 106.538ZM71.3274 105.557C71.0975 105.156 70.9627 104.677 70.9627 104.068H66.9627C66.9627 105.307 67.248 106.484 67.858 107.547L71.3274 105.557ZM70.9627 104.068C70.9627 103.439 71.0948 102.944 71.3158 102.536L67.7976 100.632C67.2266 101.688 66.9627 102.849 66.9627 104.068H70.9627ZM71.3037 102.558C71.545 102.125 71.8482 101.82 72.2241 101.599L70.2013 98.1486C69.1852 98.7442 68.3844 99.5792 67.8097 100.61L71.3037 102.558ZM72.2113 101.607C72.5937 101.386 73.0371 101.262 73.5887 101.262V97.262C72.3883 97.262 71.2477 97.5455 70.2141 98.1411L72.2113 101.607ZM73.5887 101.262C74.1406 101.262 74.5721 101.386 74.9353 101.599L76.9581 98.1486C75.9293 97.5455 74.7888 97.262 73.5887 97.262V101.262ZM74.9353 101.599C75.3058 101.817 75.5977 102.114 75.8256 102.536L79.3438 100.632C78.7797 99.5896 77.9797 98.7474 76.9581 98.1486L74.9353 101.599ZM75.8323 102.548C76.0444 102.934 76.1787 103.421 76.1787 104.068H80.1787C80.1787 102.842 79.917 101.674 79.3371 100.62L75.8323 102.548ZM76.1808 103.977L76.1628 104.373L80.1586 104.555L80.1766 104.159L76.1808 103.977ZM73.5887 98.36C72.2025 98.36 70.9334 98.825 69.9131 99.7864L72.6563 102.698C72.884 102.483 73.1509 102.36 73.5887 102.36V98.36ZM69.914 99.7856C68.9027 100.737 68.3709 101.97 68.2487 103.331L72.2327 103.689C72.2785 103.178 72.4427 102.899 72.6554 102.698L69.914 99.7856ZM70.2407 105.51H76.9547V101.51H70.2407V105.51ZM78.9467 103.331C78.8235 101.958 78.2778 100.722 77.2493 99.7723L74.5361 102.712C74.7556 102.914 74.918 103.19 74.9627 103.689L78.9467 103.331ZM77.2784 99.7997C76.2592 98.8205 74.9791 98.36 73.5887 98.36V102.36C74.0463 102.36 74.3023 102.487 74.5071 102.684L77.2784 99.7997ZM88.43 100.306L87.0158 101.72L87.028 101.732L87.0404 101.744L88.43 100.306ZM89.492 108.802V110.802H91.492V108.802H89.492ZM88.214 108.802H86.214V110.802H88.214V108.802ZM87.476 101.188L86.0285 102.568V102.568L87.476 101.188ZM82.94 101.332L81.5118 99.9318L81.5116 99.9321L82.94 101.332ZM82.058 108.802V110.802H84.058V108.802H82.058ZM80.78 108.802H78.78V110.802H80.78V108.802ZM80.78 99.334V97.334H78.78V99.334H80.78ZM82.004 99.334H84.004V97.334H82.004V99.334ZM82.004 101.08H80.004V108.258L83.7158 102.114L82.004 101.08ZM83.444 99.748L84.3524 101.53L84.359 101.526L84.3656 101.523L83.444 99.748ZM85.604 101.262C86.3788 101.262 86.7704 101.475 87.0158 101.72L89.8442 98.8917C88.6976 97.7452 87.2051 97.262 85.604 97.262V101.262ZM87.0404 101.744C87.2391 101.936 87.492 102.343 87.492 103.312H91.492C91.492 101.641 91.0368 100.044 89.8196 98.8676L87.0404 101.744ZM87.492 103.312V108.802H91.492V103.312H87.492ZM89.492 106.802H88.214V110.802H89.492V106.802ZM90.214 108.802V103.438H86.214V108.802H90.214ZM90.214 103.438C90.214 102.138 89.8865 100.818 88.9235 99.8078L86.0285 102.568C86.0494 102.59 86.214 102.77 86.214 103.438H90.214ZM88.9235 99.8078C87.9556 98.7927 86.6677 98.414 85.37 98.414V102.414C85.8963 102.414 86.0124 102.551 86.0285 102.568L88.9235 99.8078ZM85.37 98.414C83.9226 98.414 82.5586 98.8642 81.5118 99.9318L84.3681 102.732C84.5214 102.576 84.7773 102.414 85.37 102.414V98.414ZM81.5116 99.9321C80.4648 101 80.058 102.391 80.058 103.834H84.058C84.058 103.141 84.2391 102.864 84.3684 102.732L81.5116 99.9321ZM80.058 103.834V108.802H84.058V103.834H80.058ZM82.058 106.802H80.78V110.802H82.058V106.802ZM82.78 108.802V99.334H78.78V108.802H82.78ZM80.78 101.334H82.004V97.334H80.78V101.334ZM80.004 99.334V101.08H84.004V99.334H80.004ZM83.7158 102.114C83.8668 101.864 84.0654 101.676 84.3524 101.53L82.5356 97.9661C81.5986 98.4438 80.8372 99.1436 80.2922 100.046L83.7158 102.114ZM84.3656 101.523C84.6623 101.369 85.0571 101.262 85.604 101.262V97.262C84.5188 97.262 83.4736 97.479 82.5224 97.973L84.3656 101.523ZM97.9476 108.226L99.2856 109.713L100.408 108.702L99.7435 107.346L97.9476 108.226ZM97.0476 108.73L97.6404 110.64L97.6603 110.634L97.6801 110.627L97.0476 108.73ZM93.8976 108.172L92.4834 109.586L93.8976 108.172ZM93.1776 100.414H95.1776V98.414H93.1776V100.414ZM91.4856 100.414H89.4856V102.414H91.4856V100.414ZM91.4856 99.334V97.334H89.4856V99.334H91.4856ZM93.1776 99.334V101.334H95.1776V99.334H93.1776ZM93.1776 97.264V95.264H91.1776V97.264H93.1776ZM94.4556 97.264H96.4556V95.264H94.4556V97.264ZM94.4556 99.334H92.4556V101.334H94.4556V99.334ZM97.3356 99.334H99.3356V97.334H97.3356V99.334ZM97.3356 100.414V102.414H99.3356V100.414H97.3356ZM94.4556 100.414V98.414H92.4556V100.414H94.4556ZM94.8696 107.362L93.3978 108.716L93.426 108.747L93.4554 108.776L94.8696 107.362ZM96.8496 107.668L96.2172 105.771L96.203 105.775L96.1889 105.78L96.8496 107.668ZM97.4976 107.308L99.2935 106.428L98.1503 104.096L96.1878 105.797L97.4976 107.308ZM96.6097 106.739C96.6067 106.742 96.5594 106.785 96.4152 106.833L97.6801 110.627C98.2558 110.435 98.8085 110.142 99.2856 109.713L96.6097 106.739ZM96.4548 106.82C96.3089 106.865 96.1435 106.892 95.9496 106.892V110.892C96.5238 110.892 97.0904 110.811 97.6404 110.64L96.4548 106.82ZM95.9496 106.892C95.6822 106.892 95.5203 106.855 95.4328 106.825C95.3542 106.797 95.3256 106.771 95.3118 106.758L92.4834 109.586C93.4437 110.546 94.7012 110.892 95.9496 110.892V106.892ZM95.3118 106.758C95.3072 106.753 95.1776 106.645 95.1776 106.138H91.1776C91.1776 107.383 91.5281 108.631 92.4834 109.586L95.3118 106.758ZM95.1776 106.138V100.414H91.1776V106.138H95.1776ZM93.1776 98.414H91.4856V102.414H93.1776V98.414ZM93.4856 100.414V99.334H89.4856V100.414H93.4856ZM91.4856 101.334H93.1776V97.334H91.4856V101.334ZM95.1776 99.334V97.264H91.1776V99.334H95.1776ZM93.1776 99.264H94.4556V95.264H93.1776V99.264ZM92.4556 97.264V99.334H96.4556V97.264H92.4556ZM94.4556 101.334H97.3356V97.334H94.4556V101.334ZM95.3356 99.334V100.414H99.3356V99.334H95.3356ZM97.3356 98.414H94.4556V102.414H97.3356V98.414ZM92.4556 100.414V106.066H96.4556V100.414H92.4556ZM92.4556 106.066C92.4556 106.938 92.6705 107.926 93.3978 108.716L96.3415 106.008C96.3792 106.049 96.4082 106.09 96.4294 106.128C96.4502 106.164 96.4603 106.192 96.4643 106.204C96.4713 106.226 96.4556 106.19 96.4556 106.066H92.4556ZM93.4554 108.776C94.2204 109.541 95.1992 109.794 96.0936 109.794V105.794C96.0081 105.794 96.0062 105.782 96.0573 105.8C96.0837 105.809 96.1206 105.825 96.1629 105.852C96.2055 105.878 96.2467 105.911 96.2838 105.948L93.4554 108.776ZM96.0936 109.794C96.5739 109.794 97.0499 109.717 97.5103 109.556L96.1889 105.78C96.1693 105.787 96.1413 105.794 96.0936 105.794V109.794ZM97.4821 109.565C97.9543 109.408 98.4076 109.166 98.8075 108.819L96.1878 105.797C96.206 105.781 96.2211 105.771 96.2293 105.767C96.2372 105.762 96.2346 105.765 96.2172 105.771L97.4821 109.565ZM95.7018 108.188L96.1518 109.106L99.7435 107.346L99.2935 106.428L95.7018 108.188ZM100.598 108.568L99.9755 110.469L99.9949 110.475L100.015 110.481L100.598 108.568ZM98.9601 107.722L97.2236 106.73L96.3994 108.172L97.6662 109.247L98.9601 107.722ZM99.5361 106.714L100.774 105.143L98.951 103.707L97.7996 105.722L99.5361 106.714ZM101.03 107.488L100.386 109.382L100.403 109.387L100.421 109.393L101.03 107.488ZM104.81 107.38L105.897 109.059L105.903 109.055L105.908 109.051L104.81 107.38ZM105.098 105.418L103.765 106.908L103.787 106.928L103.81 106.948L105.098 105.418ZM104.234 104.968L103.641 106.878L103.672 106.887L103.702 106.896L104.234 104.968ZM102.848 104.662L102.48 106.628L102.499 106.631L102.519 106.635L102.848 104.662ZM100.994 104.23L100.362 106.127L100.384 106.135L100.406 106.142L100.994 104.23ZM99.7881 103.456L98.3015 104.794L98.3137 104.807L98.326 104.821L99.7881 103.456ZM100.292 100.018L99.0783 98.4284L100.292 100.018ZM104.882 99.514L104.353 101.443L104.37 101.447L104.388 101.452L104.882 99.514ZM106.394 100.144L108.151 101.099L109.024 99.4938L107.504 98.4799L106.394 100.144ZM105.836 101.17L104.698 102.814L106.529 104.082L107.593 102.125L105.836 101.17ZM101.192 100.792L100.061 99.1425L100.05 99.1502L100.039 99.158L101.192 100.792ZM100.922 102.79L99.5466 104.242L99.5652 104.259L99.5842 104.277L100.922 102.79ZM101.804 103.276L101.211 105.186L101.242 105.195L101.272 105.204L101.804 103.276ZM103.244 103.582L103.618 101.617L103.605 101.615L103.592 101.612L103.244 103.582ZM105.062 104.014L104.46 105.921L104.46 105.921L105.062 104.014ZM106.232 104.752L104.768 106.115V106.115L106.232 104.752ZM105.674 108.172L106.823 109.809L106.829 109.805L105.674 108.172ZM102.812 106.892C102.234 106.892 101.694 106.811 101.182 106.655L100.015 110.481C100.919 110.757 101.854 110.892 102.812 110.892V106.892ZM101.221 106.667C100.677 106.489 100.39 106.312 100.254 106.197L97.6662 109.247C98.3227 109.804 99.1269 110.191 99.9755 110.469L101.221 106.667ZM100.697 108.714L101.273 107.706L97.7996 105.722L97.2236 106.73L100.697 108.714ZM98.2984 108.285C98.9118 108.768 99.6243 109.122 100.386 109.382L101.674 105.594C101.236 105.445 100.953 105.284 100.774 105.143L98.2984 108.285ZM100.421 109.393C101.223 109.65 102.053 109.776 102.902 109.776V105.776C102.455 105.776 102.037 105.71 101.64 105.583L100.421 109.393ZM102.902 109.776C103.89 109.776 104.999 109.64 105.897 109.059L103.724 105.701C103.784 105.662 103.773 105.687 103.621 105.719C103.472 105.75 103.239 105.776 102.902 105.776V109.776ZM105.908 109.051C106.877 108.415 107.44 107.411 107.44 106.228H103.44C103.44 106.181 103.453 106.063 103.528 105.925C103.602 105.79 103.689 105.724 103.712 105.709L105.908 109.051ZM107.44 106.228C107.44 105.4 107.143 104.526 106.386 103.888L103.81 106.948C103.687 106.844 103.58 106.703 103.512 106.542C103.448 106.39 103.44 106.272 103.44 106.228H107.44ZM106.432 103.927C105.936 103.484 105.358 103.203 104.766 103.04L103.702 106.896C103.755 106.911 103.781 106.923 103.787 106.926C103.792 106.929 103.782 106.924 103.765 106.908L106.432 103.927ZM104.827 103.058C104.357 102.912 103.796 102.792 103.177 102.689L102.519 106.635C103.052 106.724 103.415 106.808 103.641 106.878L104.827 103.058ZM103.217 102.696C102.485 102.559 101.949 102.431 101.582 102.318L100.406 106.142C100.975 106.317 101.675 106.477 102.48 106.628L103.217 102.696ZM101.627 102.333C101.475 102.282 101.358 102.207 101.25 102.091L98.326 104.821C98.8902 105.425 99.5776 105.866 100.362 106.127L101.627 102.333ZM101.275 102.118C101.293 102.138 101.306 102.158 101.316 102.174C101.325 102.191 101.327 102.199 101.326 102.194C101.322 102.182 101.302 102.113 101.302 101.962H97.3021C97.3021 102.934 97.5546 103.964 98.3015 104.794L101.275 102.118ZM101.302 101.962C101.302 101.853 101.322 101.808 101.332 101.79C101.343 101.768 101.38 101.703 101.506 101.607L99.0783 98.4284C97.9509 99.2894 97.3021 100.512 97.3021 101.962H101.302ZM101.506 101.607C101.698 101.461 102.131 101.262 103.046 101.262V97.262C101.609 97.262 100.206 97.5674 99.0783 98.4284L101.506 101.607ZM103.046 101.262C103.473 101.262 103.907 101.32 104.353 101.443L105.412 97.5853C104.633 97.3717 103.844 97.262 103.046 97.262V101.262ZM104.388 101.452C104.848 101.569 105.127 101.703 105.285 101.808L107.504 98.4799C106.869 98.0569 106.14 97.7706 105.376 97.5759L104.388 101.452ZM104.637 99.1884L104.079 100.214L107.593 102.125L108.151 101.099L104.637 99.1884ZM106.975 99.5256C105.815 98.7229 104.475 98.36 103.046 98.36V102.36C103.778 102.36 104.297 102.537 104.698 102.814L106.975 99.5256ZM103.046 98.36C102.049 98.36 100.96 98.5263 100.061 99.1425L102.323 102.441C102.284 102.468 102.3 102.445 102.424 102.416C102.549 102.387 102.75 102.36 103.046 102.36V98.36ZM100.039 99.158C99.1418 99.7912 98.5801 100.758 98.5801 101.926H102.58C102.58 101.993 102.563 102.113 102.493 102.241C102.426 102.365 102.353 102.421 102.345 102.426L100.039 99.158ZM98.5801 101.926C98.5801 102.747 98.8603 103.592 99.5466 104.242L102.298 101.338C102.392 101.428 102.473 101.545 102.525 101.676C102.575 101.801 102.58 101.894 102.58 101.926H98.5801ZM99.5842 104.277C100.065 104.709 100.623 105.003 101.211 105.186L102.397 101.366C102.341 101.349 102.307 101.332 102.288 101.322C102.269 101.312 102.262 101.305 102.26 101.303L99.5842 104.277ZM101.272 105.204C101.709 105.324 102.26 105.439 102.897 105.552L103.592 101.612C103.004 101.509 102.595 101.419 102.336 101.348L101.272 105.204ZM102.87 105.547C103.589 105.684 104.11 105.811 104.46 105.921L105.664 102.107C105.103 101.929 104.411 101.768 103.618 101.617L102.87 105.547ZM104.46 105.921C104.588 105.962 104.681 106.021 104.768 106.115L107.696 103.389C107.135 102.787 106.448 102.354 105.664 102.107L104.46 105.921ZM104.768 106.115C104.749 106.094 104.732 106.071 104.72 106.05C104.708 106.029 104.703 106.015 104.702 106.013C104.7 106.009 104.718 106.06 104.718 106.192H108.718C108.718 105.224 108.455 104.204 107.696 103.389L104.768 106.115ZM104.718 106.192C104.718 106.317 104.694 106.363 104.688 106.375C104.681 106.389 104.647 106.449 104.52 106.539L106.829 109.805C108.036 108.951 108.718 107.692 108.718 106.192H104.718ZM104.525 106.535C104.301 106.692 103.807 106.892 102.812 106.892V110.892C104.265 110.892 105.679 110.612 106.823 109.809L104.525 106.535Z" fill="#3F3D56"/>
</svg>
